<svg width="128.481" height="82.491" viewBox="0 0 128.481 82.491" xmlns="http://www.w3.org/2000/svg"><g id="svgGroup" stroke-linecap="round" fill-rule="evenodd" font-size="9pt" stroke="#3949ab" stroke-width="0.25mm" fill="#7986cb" style="stroke:#3949ab;stroke-width:0.25mm;fill:#7986cb"><path d="M 56.613 20.114 L 47.121 20.114 A 14.887 14.887 0 0 0 46.25 16.351 A 10.14 10.14 0 0 0 41.81 11.074 A 17.466 17.466 0 0 0 37.492 9.32 Q 35.484 8.781 33.096 8.546 A 40.192 40.192 0 0 0 29.154 8.362 A 37.015 37.015 0 0 0 24.499 8.635 Q 19.225 9.305 16.169 11.625 A 10.971 10.971 0 0 0 15.933 11.809 A 11.198 11.198 0 0 0 11.844 19.022 A 16.687 16.687 0 0 0 11.639 21.696 Q 11.639 24.739 12.719 26.861 A 7.945 7.945 0 0 0 13.164 27.629 Q 14.69 29.945 17.12 31.414 Q 19.549 32.883 22.205 33.731 Q 24.86 34.578 27.12 35.256 L 35.256 37.516 Q 38.533 38.42 42.488 39.833 Q 46.443 41.245 50.059 43.731 Q 53.675 46.217 55.935 50.003 A 15.246 15.246 0 0 1 57.698 54.551 Q 58.125 56.475 58.185 58.702 A 27.346 27.346 0 0 1 58.195 59.438 Q 58.195 66.218 55.031 71.416 A 19.458 19.458 0 0 1 49.105 77.495 A 25.983 25.983 0 0 1 45.369 79.552 A 30.066 30.066 0 0 1 39.149 81.535 Q 36.092 82.177 32.529 82.387 A 61.046 61.046 0 0 1 28.928 82.49 Q 19.955 82.49 13.756 80.033 A 22.678 22.678 0 0 1 8.023 76.784 Q 0.791 71.077 0 61.133 L 9.831 61.133 A 19.008 19.008 0 0 0 10.485 64.43 Q 11.289 67.121 12.882 68.93 A 12.827 12.827 0 0 0 17.475 72.221 A 16.505 16.505 0 0 0 19.492 72.942 Q 23.488 74.091 28.597 74.127 A 47.046 47.046 0 0 0 28.928 74.128 Q 38.307 74.128 43.449 70.399 A 12.079 12.079 0 0 0 48.344 62.297 A 18.472 18.472 0 0 0 48.59 59.212 A 13.554 13.554 0 0 0 48.309 56.367 Q 47.802 54.01 46.387 52.376 A 13.931 13.931 0 0 0 42.788 49.444 A 17.905 17.905 0 0 0 40.567 48.364 A 74.643 74.643 0 0 0 35.782 46.616 A 91.453 91.453 0 0 0 32.657 45.652 L 22.487 42.827 A 51.035 51.035 0 0 1 16.005 40.546 Q 12.742 39.127 10.175 37.355 A 25.78 25.78 0 0 1 7.514 35.256 A 16.033 16.033 0 0 1 2.336 25.123 A 22.689 22.689 0 0 1 2.147 22.148 A 24.104 24.104 0 0 1 2.819 16.323 A 18.49 18.49 0 0 1 5.537 10.227 A 20.583 20.583 0 0 1 12.211 4.125 A 26.186 26.186 0 0 1 15.142 2.656 A 32.253 32.253 0 0 1 22.97 0.473 A 43.146 43.146 0 0 1 29.493 0 Q 37.855 0 43.788 2.543 A 24.78 24.78 0 0 1 49.034 5.552 A 19.917 19.917 0 0 1 53.053 9.605 A 18.29 18.29 0 0 1 56.573 19.371 A 22.262 22.262 0 0 1 56.613 20.114 Z M 71.416 81.021 L 71.416 1.13 L 100.118 1.13 A 50.359 50.359 0 0 1 105.922 1.444 Q 108.782 1.776 111.172 2.463 A 22.16 22.16 0 0 1 114.808 3.842 A 19.963 19.963 0 0 1 119.199 6.718 A 15.776 15.776 0 0 1 122.831 11.3 A 21.61 21.61 0 0 1 125.049 18.341 A 27.817 27.817 0 0 1 125.317 22.261 Q 125.317 27.474 123.086 31.054 A 12.889 12.889 0 0 1 123 31.188 A 17.05 17.05 0 0 1 119.663 35.046 A 15.231 15.231 0 0 1 117.237 36.725 A 21.757 21.757 0 0 1 111.972 38.844 A 19.772 19.772 0 0 1 110.175 39.211 L 110.175 39.889 Q 113.113 40.002 116.277 41.302 A 20.856 20.856 0 0 1 121.511 44.441 A 23.903 23.903 0 0 1 122.209 45.031 A 18.065 18.065 0 0 1 125.915 49.586 A 21.611 21.611 0 0 1 126.729 51.133 Q 128.481 54.805 128.481 59.777 A 25.312 25.312 0 0 1 127.769 65.897 A 20.763 20.763 0 0 1 125.882 70.795 A 15.887 15.887 0 0 1 121.011 76.198 A 22.178 22.178 0 0 1 117.294 78.309 A 26.014 26.014 0 0 1 112.317 79.935 Q 107.529 81.021 101.022 81.021 L 71.416 81.021 Z M 81.134 72.772 L 100.909 72.772 A 53.512 53.512 0 0 0 104.763 72.643 Q 109.335 72.312 112.096 71.134 A 12.596 12.596 0 0 0 114.544 69.774 Q 116.446 68.399 117.351 66.444 A 15.218 15.218 0 0 0 118.625 61.875 A 19.061 19.061 0 0 0 118.763 59.551 Q 118.763 55.144 117.012 51.754 Q 115.26 48.364 111.475 46.387 Q 108.567 44.868 104.226 44.516 A 34.062 34.062 0 0 0 101.474 44.409 L 81.134 44.409 L 81.134 72.772 Z M 81.134 36.273 L 99.666 36.273 Q 107.802 36.273 111.701 32.714 A 11.507 11.507 0 0 0 115.096 26.878 Q 115.568 25.008 115.597 22.785 A 22.448 22.448 0 0 0 115.599 22.487 A 20.283 20.283 0 0 0 115.288 18.857 A 15.632 15.632 0 0 0 114.356 15.651 Q 113.113 12.656 109.78 11.018 Q 106.61 9.46 100.735 9.383 A 47.19 47.19 0 0 0 100.118 9.379 L 81.134 9.379 L 81.134 36.273 Z" vector-effect="non-scaling-stroke"/></g></svg>